<svg id="Calque_1" data-name="Calque 1" xmlns="http://www.w3.org/2000/svg" viewBox="0 0 6823.98 1382.64"><defs><style>.cls-1{fill:#0595be;}.cls-2{fill:#a4da22;}.cls-3{fill:#056526;}.cls-4{fill:#d7e9e0;}.cls-5{fill:#dff2b4;}.cls-6{fill:#b8d1be;}.cls-7{fill:#fdfefe;}.cls-8{fill:#b6d6c5;}.cls-9{fill:#81b191;}.cls-10{fill:#9dd5c3;}.cls-11{fill:#d8ebe3;}.cls-12{fill:#bde4da;}</style></defs><title>brand</title><path class="cls-1" d="M45.25,667.34c.23-60,16.1-116,45.67-167.8C132.77,426.21,188.65,365.87,261,321.4c29.3-18,56.28-39.27,83.31-60.42,2.21-1.73,5.88-3.5,3.95-6.84-1.78-3.08-5.3-1.48-8.2-.69-59.06,16.19-119.42-25.8-128.66-82.88-2.13-13.13,1.66-18.37,15.27-20A276.8,276.8,0,0,1,320,155.2c18.89,4.15,37.32,9.9,55.63,16.06,3.47,1.16,6.93,2.4,10.48,3.25,6.8,1.64,9.74.41,10.85-6.42,2.69-16.72,11.13-30.39,20.81-43.74,10.23-14.09,17.41-29.9,23.87-46,1-2.47,1.8-5,2.83-7.48,1.81-4.27,3.23-9.4,9.39-8.5,5.78.85,6.93,6,7.56,10.54,1.93,14.17,5,28.2,5.24,42.59.14,7.33,2.62,9.37,9.93,8.79,6.77-.54,11-4.58,13.5-10.41,2.85-6.73,5.42-13.61,7.59-20.59,3.25-10.49,6-21.13,9.07-31.68,1.11-3.83,2.42-7.61,3.73-11.38,1.24-3.56,2.66-7.07,7.41-6.71s5.72,3.91,6.78,7.52a120.64,120.64,0,0,1,4.62,23.5c1.64,18.37.94,36.59-5,54.32-3.22,9.54-1.35,13.24,7.87,17,9.94,4,19,2.65,26.92-4.56,12.91-11.71,28.54-18.23,44.77-23.5,10.38-3.36,15-.31,16.1,10.71.55,5.27.07,10.64.18,16,.39,18.78,8.12,32.75,26.44,39.45,5,1.83,8.9,4.92,11,9.56,7.85,16.88,21.65,27.52,37.23,36.43,24.86,14.23,49.78,28.36,74.54,42.77,14.71,8.55,29.33,16.78,46.39,20.34,13.39,2.8,22.82,17.11,24.06,33.53,1.22,16-2.11,30.4-15.16,41.4-7.12,6-13.49,12.9-20.54,19-12.72,11-27.46,17.66-44.37,18.56-19.7,1-37.82,7.32-55.38,15.67-19.88,9.44-38.69,20.87-58,31.29-28.75,15.48-57.63,30.7-88.05,42.72A276.2,276.2,0,0,1,436.88,514a70.16,70.16,0,0,1-33.66-11.49c-9.57-6.14-18.17-13.53-26.84-20.81-8-6.71-16.46-12.53-27-14.52a22.75,22.75,0,0,0-5.91-.78c-5.24.44-7.7,5-4.62,9.24,2.92,4,6.81,7.28,10.12,11,1.23,1.4,3.09,3.1,1.42,5.15-1.39,1.71-3.46,1.66-5.48.74-3.94-1.79-7.86-3.62-11.85-5.27a117.1,117.1,0,0,0-50.79-8.71c-3.45.16-6.67.27-8.53,3.83-2,3.85-.62,7.15,1.74,10.16a77.67,77.67,0,0,0,6.07,6.63q20.94,20.77,41.93,41.5c3.79,3.75,7.64,7.46,11.18,11.44,10.29,11.62,10.27,18.12.18,29.55-.88,1-1.8,2-2.74,2.91a334.61,334.61,0,0,1-47.41,39.79c-9.39,6.57-20.08,8.63-31.1,9.67A164.35,164.35,0,0,0,228,638.14c-9.18,2.36-11.74,5.23-12.11,14.49s-1.2,18.67,1.56,27.8c3.78,12.49,7.88,15.17,21,14.11,12.77-1,24.29,3.25,35.42,8.8,25.92,12.94,51.83,25.91,78.21,37.91,8.79,4,17.66,7.83,26.44,11.86,10,4.59,11.47,7.15,9.12,17.89a371.39,371.39,0,0,0-8.35,62.3c-3.2,68.25,15.45,129.68,57,184.05,21.41,28.06,47.06,51.72,75.7,72.18,30.86,22,56.54,48.69,73.84,82.71,25.35,49.82,28.61,102,15.08,155.56a254.46,254.46,0,0,1-42.14,89.91c-2.81,3.81-5,9.67-11.29,8.17-5.6-1.34-5.33-7.23-6.47-11.5-9.88-37.1-22.1-73.29-39.66-107.57-28.2-55.07-65.46-103.51-107.65-148.39-35.91-38.21-75.57-72.34-115.54-106.13-33.1-28-66.29-55.81-97-86.41C116.5,901.68,75.19,824.53,53.14,736.7A275.17,275.17,0,0,1,45.25,667.34Z" transform="translate(-45.24 -43.48)"/><path class="cls-2" d="M1086.05,1060.07c-19.18-51.24-41.23-101.11-70-147.8-22.3-36.21-48.1-69.6-79.58-98.37C889.6,771.07,835.13,743.44,772.54,732c-44-8.08-88-7.69-132.27-2.24-39.78,4.91-78.5,14.3-116.72,26.07a65.83,65.83,0,0,1-6.71,1.94c-2.2.42-4.83,1.28-6.22-1.4-1.2-2.31-.16-4.51,1.15-6.56a14,14,0,0,1,5.24-4.5c31-17.52,60.34-37.93,92.34-53.76,47.2-23.34,96.59-39.48,149-45.75,104.59-12.5,197.18,14.2,276.75,84.1,39.77,34.94,73.53,75.25,105.5,117.17,39.82,52.21,76,107,113.86,160.61,27.29,38.66,55,77,87.66,111.45,17.49,18.43,36.21,35.41,58.49,48,.29.16.56.36.84.55,3.84,2.64,8.37,5,8.28,10.45-.1,6-5.16,8.14-9.7,10.19-57.64,26-116.08,50-176.09,70.16a1124.72,1124.72,0,0,1-134.77,36.46,777.22,777.22,0,0,1-97.8,13.62,598.47,598.47,0,0,1-64.91,1.37c-67.7-2.46-132.79-15.83-193-48.28-64.39-34.72-113.56-85.38-152.14-146.9-33.34-53.18-56.57-110.7-73.42-171-3.23-11.54-6.64-23-8.91-34.81-3-15.76,1.92-28.11,15.22-37.21,39.37-27,82.89-43.42,129.76-51.52,27.4-4.73,55-5.63,82.64-4.09,56.37,3.14,109.41,18.66,159.26,44.92,68.4,36,122.58,87.79,166.18,151.16,11.53,16.75,21.79,34.27,31.85,51.92,1.87,1.61,3.51,3.39,4,4.82C1085.42,1067.13,1088,1063.06,1086.05,1060.07Z" transform="translate(-45.24 -43.48)"/><path class="cls-1" d="M4805.9,405.71c53.33,0,106.67-.9,160,.2,95.27,1.95,177.41,72.9,194.39,166.46,2,11.16,3.61,22.36,3.56,33.73,0,8.3-.08,8.37-8.05,8.46q-50,.62-99.95,1.16c-7,.08-14-.14-21,.26-5.36.3-6.76-1.89-6.78-7-.12-30.33-23.75-60.15-57.72-65.88a53.57,53.57,0,0,0-8.91-.94c-104.33,0-208.65-.36-313,.17-34,.18-62.78,28.31-66.2,62.12-5.17,51.25,35.32,80.46,71.55,80.14,90-.82,180-.3,270-.26,39.7,0,77.47,8.62,112.3,27.74,71,39,113.93,98.72,125.3,178.79,18,127.05-65.55,243.18-191.28,268.47a236.66,236.66,0,0,1-46.69,4.49c-80.66,0-161.34,1.14-242-.43-120.53-2.35-210.86-91.19-229.78-194.48a237.31,237.31,0,0,1-4.05-38.7c-.08-4.81,1.59-6.29,6.35-6.28,40.66.15,81.32,0,122,.12,7,0,7,.2,7.66,8.3,2.08,26.82,13.21,49.31,32.72,67.6,19.28,18.08,42.41,27.79,68.75,27.91,80.32.37,160.65.55,241,0,56.38-.39,102.88-46.39,103.39-102.44.5-54.9-39.53-94.39-84.7-103.37a131.07,131.07,0,0,0-25.85-2q-133.48,0-267,0c-105.94,0-184.72-75-201.13-169C4431.6,541.08,4492,455.56,4572.16,421.37c26.76-11.42,54.73-16.13,83.76-16,50,.24,100,.07,150,.07Z" transform="translate(-45.24 -43.48)"/><path class="cls-1" d="M6030,785.15v365a65.35,65.35,0,0,0,0,7c.6,5.44-2.06,6.68-7,6.66q-61-.19-122,0c-5.29,0-7.26-1.85-6.74-7,.23-2.31,0-4.66,0-7q0-161,0-322c0-13.46,1.29-11.78-11.65-11.79q-231.49,0-463,0c-1.66,0-3.33,0-5,0-7.26.2-7.29.21-7.53,7.06-.09,2.66,0,5.33,0,8q0,159,0,318c0,17.41,1.64,14.49-15.07,14.56-36.33.15-72.66,0-109,0-2.33,0-4.67-.06-7,0-2.85,0-4.33-1.23-4.32-4.15,0-2.34,0-4.67,0-7q0-368,0-736c0-12-1.25-10.84,10.56-10.85q57-.06,114,0c2,0,4,.09,6,0,3.34-.14,4.92,1.36,4.86,4.72-.06,2.66,0,5.33,0,8q0,125,0,250c0,13.35-1.32,11.93,11.55,11.93q232,0,464,0h2c10.5-.06,9.64.86,9.64-9.75q0-126,0-252c0-14.29-2.05-12.88,12.61-12.9q55.5-.08,111,0c2.34,0,4.68.13,7,0,4-.22,5.27,1.79,5.07,5.47-.15,2.65,0,5.33,0,8Z" transform="translate(-45.24 -43.48)"/><path class="cls-1" d="M2493.22,406.32c-6.48,6-11.47,10.73-16.53,15.37L2196,679.23c-8.84,8.11-17.7,16.2-26.49,24.37-6.35,5.89-7.87,4.83-1.57,13.51q31.73,43.67,63.3,87.45L2483.2,1152.8c2.13,3,4.18,6,6.11,8.74-1.09,3.18-3.45,2.13-5.2,2.13-51,.06-102-.09-153,.22-6.44,0-9.46-3-12.73-7.55Q2232.85,1038.1,2147.14,920q-39.6-54.62-79.24-109.22c-1.93-2.64-3.26-5.86-7-7.81-6.51,5.83-13.17,11.75-19.77,17.74Q1959.45,895,1877.61,969.24c-5.77,5.21-7.8,10.48-7.76,18,.28,54.66.15,109.32.15,164,0,2.33-.12,4.67,0,7,.21,3.69-1.15,5.7-5.13,5.45-2-.12-4,0-6,0h-114c-1.67,0-3.34-.13-5,0-4.51.4-5.91-1.93-5.59-6,.12-1.66,0-3.33,0-5q0-368,0-735.91c0-12-1.46-11.08,11.43-11.09q56.49,0,113,0c2.33,0,4.66.07,7,.05,2.87,0,4.27,1.31,4.22,4.22s0,6,0,9V790.59c4.08-.26,5.48-2.8,7.33-4.5q162.75-148.71,325.41-297.53,42.42-38.79,84.72-77.72c3.59-3.31,7.09-5.26,12.28-5.24,62.66.18,125.32.12,188,.14C2488.71,405.74,2489.7,405.94,2493.22,406.32Z" transform="translate(-45.24 -43.48)"/><path class="cls-1" d="M3361.13,615.12c0,57,.16,114-.05,171-.2,55.77-11.38,109.37-36,159.41-56.87,115.46-148.48,188.09-275,211.7-205.6,38.34-396.92-96-439.49-294.25a376.18,376.18,0,0,1-8.21-79.35q0-183,0-365.91c0-12.85-1.77-11.94,11.57-11.95q56.49,0,113,0c2,0,4,.12,6,0,3.91-.23,5.36,1.65,5.14,5.39-.16,2.66,0,5.33,0,8q0,181.46.06,362.91c.12,71.35,26.15,132,78.21,180.73,39.38,36.89,86.38,57.85,140.21,63.81,121.39,13.45,240.38-68.83,265-198.11a259.62,259.62,0,0,0,4.24-48.71q0-181,0-361.92c0-13.79-1.71-12,12.31-12.07q56.49-.12,113,0c10.6,0,10.14-.87,10.14,10.45Z" transform="translate(-45.24 -43.48)"/><path class="cls-1" d="M6483.07,704.09c-8.13,15.85-15.74,30.61-23.3,45.39q-103.64,202.85-207.14,405.75c-3.07,6-6.28,8.75-13.52,8.69-44-.4-88-.18-132-.24-2.9,0-5.93.75-8.7-.79,1.2-6.53,371.31-734.39,385.06-757l385.74,756.34c-3,2.38-5.72,1.45-8.2,1.46-44.66.07-89.32-.1-134,.21-6.57,0-9.95-1.86-13-7.84q-111-218.14-222.5-436C6489,715,6486.26,710.07,6483.07,704.09Z" transform="translate(-45.24 -43.48)"/><path class="cls-3" d="M1114,616.17c-65.46-30.39-132.83-54.92-204.63-65.32-59.57-8.64-118.19-5.2-175.31,15.19-36.43,13-69.22,32.36-99.19,56.69a401.1,401.1,0,0,0-39.47,36.75,97.52,97.52,0,0,1-21.92,17.2c-17.79,10.44-35.38,21.24-53.14,31.75-2.66,1.57-5.54,5-8.86,2.42s-.78-6.15.18-9.2C535.42,625.85,573.78,559,633,505.14c44-40.06,95.07-66.95,153.19-79.72,40.57-8.92,81.79-10.26,123.2-8.18,73.7,3.7,146.12,16.72,218.52,29.85,49.45,9,98.81,18.54,148.76,24.37,33.08,3.86,66.3,6.78,99.67,3.09,11.24-1.24,22.44-2.64,33.42-5.65,5-1.36,10.84-3.64,15,1.12,4.41,5,1.6,10.7-.41,16-2.71,7.16-5.59,14.26-8.19,21.46a49.38,49.38,0,0,1-8,13.73c-16.84,21.48-34.42,42.39-50.46,64.5-1.4,5.41-5.91,8.75-8.75,13.21-3.19,3.61-6,7.55-9.62,10.79a16.24,16.24,0,0,1-1.24,2.19c-.75.89-1.2,2-1.86,2.82.12,0,0,.18,0,.08.75-1.1-.2.57.55-.6a11.79,11.79,0,0,1,1.14-2c.81-1,1.27-2.17,2.13-3.09,3.34-2.9,5.78-6.6,8.79-9.79,3.55-3.88,5.49-9.41,11.26-11,6.18-6,12.29-12.15,18.55-18.12,3.58-3.42,7.4-6.57,12-8,2.28,2.25,1.49,4.17.7,6-43.67,102-94.28,200-166.52,285.27-4.09,4.83-8.21,9.64-12.47,14.32-8.26,9.09-12.43,8.87-19.72-.85-14-18.65-27.68-37.53-42-55.91-33.71-43.16-69.92-84-113.11-118.11-39.16-30.89-81.12-57-128.64-73.32-19.9-6.83-40.36-11.06-61.17-13.72.29-3.6,2.93-3.38,5.06-3.93,35.44-9.25,71.53-11.53,108-10.1,49.22,1.94,97,11.79,144.22,25.35,1.59.46,3.23.74,4.85,1.1,3.83,1.33,8.26-.09,11.76,2.58.58-.6.89,1.46,1.57.18a4.65,4.65,0,0,1-1.9-.49,20.67,20.67,0,0,1-3-1.41C1116.76,618.27,1115.12,617.61,1114,616.17Z" transform="translate(-45.24 -43.48)"/><path class="cls-1" d="M3604,672.79V921.7c0,48.13,31.79,89.59,78.43,102.4a82.54,82.54,0,0,0,21.72,2.77q173.43.48,346.84,1c12,0,24,.29,36,.08,5.05-.09,7,1.4,7,6.75-.18,40.65-.07,81.3-.13,122,0,7-.21,7-7.31,7.22-1.33,0-2.67,0-4,0q-183.43,0-366.87.07c-54.69.09-104.71-14.29-148.59-47.28-57.34-43.11-89.68-100.7-97.48-172.08a258.07,258.07,0,0,1-1.25-27.93q0-249.4,0-498.82c0-13.46-1.82-12.11,12.36-12.13q56-.08,112,0c2.34,0,4.67.07,7,0,2.82,0,4.34,1.18,4.3,4.14,0,2.66,0,5.33,0,8Z" transform="translate(-45.24 -43.48)"/><path class="cls-1" d="M4338,785.24v363.83c0,2.33.05,4.66,0,7-.17,7.49-.19,7.63-7.9,7.64q-60,.08-119.94,0c-7.64,0-7.65-.15-7.82-7.71,0-1.67,0-3.33,0-5q0-366.33,0-732.66c0-14.07-1.91-12.57,12.9-12.59q55.47-.09,110.95,0c2.33,0,4.67.09,7,0,3.28-.11,4.95,1.24,4.8,4.68-.12,2.66,0,5.33,0,8Z" transform="translate(-45.24 -43.48)"/><path class="cls-4" d="M1347.85,597.89c2.94-4.36,5.69-8.86,9.9-12.19.81.86,1.61,1.72,2.42,2.57-2.69,4.57-6.51,8.17-10.2,11.89C1348.13,600.46,1347.18,599.94,1347.85,597.89Z" transform="translate(-45.24 -43.48)"/><path class="cls-5" d="M1086.05,1060.07c3,4.61,4.29,9.75,6,17.06-4.4-5-7.26-8.36-8.08-13C1085.82,1063.36,1085.73,1061.61,1086.05,1060.07Z" transform="translate(-45.24 -43.48)"/><path class="cls-6" d="M1114,616.17c2.39-.36,4,1.32,5.91,2.25a9.35,9.35,0,0,0,2.72,1.53,1.08,1.08,0,0,1,1.23.36q1,.62.72,1.32c-.17.49-.36.73-.56.73a29.53,29.53,0,0,1-14.15-4.08C1111.28,617.62,1113.23,618,1114,616.17Z" transform="translate(-45.24 -43.48)"/><path class="cls-7" d="M1155.4,530a25.32,25.32,0,0,1-7.85-1.16c-9.3-2.93-15.4-10-15.07-17.62.36-8.32,8.22-15.9,18-17.18,6.41-.84,12.58-.23,18.21,3.43,11.46,7.49,11.46,21.33-.11,28.61A25.28,25.28,0,0,1,1155.4,530Z" transform="translate(-45.24 -43.48)"/><path class="cls-8" d="M1347.85,597.89l2.12,2.26a36.32,36.32,0,0,1-9,10.12,2.59,2.59,0,0,1-2.57-.07A48.47,48.47,0,0,1,1347.85,597.89Z" transform="translate(-45.24 -43.48)"/><path class="cls-9" d="M1338,614.06c-1.27,3.22-3.75,5.36-7.29,8,.19-4.17,2.15-6.24,4.76-8A1.9,1.9,0,0,1,1338,614.06Z" transform="translate(-45.24 -43.48)"/><path class="cls-10" d="M1124,622.36c0-.68-.1-1.36-.16-2.05,1.65.23,3,1,2.26,2.79C1125.87,623.76,1124.55,623.24,1124,622.36Z" transform="translate(-45.24 -43.48)"/><path class="cls-11" d="M1338.39,610.2l2.57.07c-.6,1.07-1.25,2.08-2.6,2.31l-.66-.65A1.53,1.53,0,0,1,1338.39,610.2Z" transform="translate(-45.24 -43.48)"/><path class="cls-12" d="M1338,614.06h-2.53c.45-1,.92-2.05,2.27-2.14l.66.65A1.15,1.15,0,0,1,1338,614.06Z" transform="translate(-45.24 -43.48)"/><path class="cls-10" d="M1122.64,620a3.19,3.19,0,0,1-2.72-1.53Z" transform="translate(-45.24 -43.48)"/></svg>